<?xml version="1.0" encoding="UTF-8" standalone="no"?>
<!-- Created with Inkscape (http://www.inkscape.org/) -->

<svg
   version="1.1"
   id="svg1"
   width="320"
   height="640"
   viewBox="0 0 320 640"
   sodipodi:docname="home.svg"
   inkscape:version="1.4.2 (ebf0e940, 2025-05-08)"
   xmlns:inkscape="http://www.inkscape.org/namespaces/inkscape"
   xmlns:sodipodi="http://sodipodi.sourceforge.net/DTD/sodipodi-0.dtd"
   xmlns="http://www.w3.org/2000/svg"
   xmlns:svg="http://www.w3.org/2000/svg">
  <defs
     id="defs1" />
  <sodipodi:namedview
     id="namedview1"
     pagecolor="#ffffff"
     bordercolor="#000000"
     borderopacity="0.25"
     inkscape:showpageshadow="2"
     inkscape:pageopacity="0.0"
     inkscape:pagecheckerboard="0"
     inkscape:deskcolor="#d1d1d1"
     inkscape:zoom="0.84149012"
     inkscape:cx="190.13889"
     inkscape:cy="359.48134"
     inkscape:window-width="1472"
     inkscape:window-height="920"
     inkscape:window-x="0"
     inkscape:window-y="36"
     inkscape:window-maximized="0"
     inkscape:current-layer="g1" />
  <g
     inkscape:groupmode="layer"
     inkscape:label="Image"
     id="g1">
    <g
       id="g2">
      <path
         style="fill:#f6f9fb"
         d="m 14.896,639.73511 c 1.036222,-0.90291 15.737579,-13.91665 22.864,-20.23937 4.664,-4.13801 21.224,-18.81557 36.8,-32.6168 15.576,-13.80123 32.784,-29.05408 38.24,-33.89521 10.29846,-9.13788 19.01343,-16.8663 31.04,-27.52621 3.872,-3.432 10.136,-8.98493 13.92,-12.33984 3.784,-3.35491 10.77292,-9.55085 15.53093,-13.76876 4.75801,-4.21791 11.49001,-10.18572 14.96,-13.26181 L 194.56,480.49422 V 350.14607 c 0,-94.63074 0.097,-130.52939 0.35399,-131.00958 0.35312,-0.65981 0.34111,-0.66092 -4.88,-0.45323 -2.87869,0.11451 -6.92599,0.29613 -8.99399,0.40359 l -3.76,0.19538 -0.005,2.59889 c -0.003,1.42938 -0.1253,2.78876 -0.27246,3.02084 -0.28863,0.4552 -1.46092,1.03391 -7.88264,3.89131 -2.288,1.01807 -5.86041,2.66006 -7.93868,3.64888 -2.07827,0.98882 -3.83389,1.79785 -3.90136,1.79785 -0.0675,0 -1.75107,0.77023 -3.74132,1.71163 -1.99025,0.9414 -5.27464,2.4704 -7.29864,3.39779 -2.024,0.92738 -4.85394,2.24515 -6.28874,2.92836 -1.43481,0.68322 -2.6865,1.24222 -2.78152,1.24222 -0.095,0 -1.87309,0.80757 -3.95126,1.7946 -6.54922,3.11058 -8.84246,4.18877 -10.81848,5.08645 -1.056,0.47973 -2.928,1.34458 -4.16,1.9219 -5.02731,2.3558 -8.69488,3.99705 -8.93191,3.99705 -0.13825,0 -0.70513,0.20334 -1.25973,0.45186 -1.31474,0.58914 -3.76605,1.32208 -5.96836,1.78452 -0.968,0.20326 -2.048,0.4945 -2.4,0.64722 -0.567349,0.24613 -8.847531,1.79844 -13.6,2.54962 -2.686483,0.42463 -12.113274,1.24846 -17.04,1.48917 l -4.4,0.21497 0,7.49236 c 0,4.55272 -0.12997,7.73521 -0.331259,8.11132 -0.308989,0.57735 -0.725145,0.61896 -6.190404,0.61896 -5.548168,0 -5.8915,-0.0357 -6.468741,-0.67294 -0.557958,-0.61594 -0.617678,-1.3277 -0.705004,-8.40254 l -0.09541,-7.7296 -4.544592,-0.56522 C 43.805066,261.99883 41.112,261.54355 40.32,261.29796 c -0.792,-0.24559 -2.664,-0.81276 -4.16,-1.26038 -3.436382,-1.02822 -5.942262,-2.52869 -7.187539,-4.30378 -0.96212,-1.37145 -0.973551,-1.43656 -1.074943,-6.12289 -0.09873,-4.5635 -0.07244,-4.79415 0.719141,-6.30802 0.451893,-0.86423 1.362009,-2.08657 2.022482,-2.7163 1.212844,-1.15641 5.100393,-3.78659 5.59678,-3.78659 0.147767,0 1.667134,-0.62655 3.376373,-1.39234 1.709238,-0.76579 4.043706,-1.79296 5.187706,-2.28259 1.144,-0.48963 2.944,-1.288 4,-1.77415 3.538762,-1.62913 6.684434,-3.01085 25.6,-11.24469 1.232,-0.53628 3.32,-1.44668 4.64,-2.0231 1.32,-0.57643 3.552,-1.55031 4.96,-2.16418 1.408,-0.61388 3.208,-1.35318 4,-1.6429 0.792,-0.28972 1.765923,-0.77842 2.164273,-1.086 l 0.724272,-0.55925 -0.0059,-38.63299 c -0.0038,-24.57115 0.115175,-39.7695 0.32682,-41.7554 0.732205,-6.8704 1.812933,-10.3643 5.172554,-16.72241 6.283299,-11.89119 16.637019,-19.389621 30.222579,-21.887953 L 131.12909,92.8 l 35.07546,0 35.07545,0 V 81.824 c 0,-8.110222 0.10026,-11.07626 0.384,-11.36 0.59164,-0.59164 31.72026,-0.549523 32.2125,0.04358 0.2406,0.289906 0.38201,3.921936 0.43918,11.28 L 234.4,92.64 l 15.36,0.184738 c 14.8501,0.178605 15.49455,0.212043 19.41309,1.007273 6.58906,1.337186 12.74176,4.000884 17.70691,7.665879 3.2224,2.37859 8.31985,7.63868 10.64255,10.98211 2.04146,2.93859 5.19586,8.85058 5.19942,9.74477 0.001,0.27238 0.2273,0.92723 0.5027,1.45523 0.58202,1.11587 2.02926,7.37567 2.40443,10.4 0.14192,1.144 0.26543,19.11455 0.27447,39.93455 l 0.0164,37.85454 -0.7468,0.7468 c -0.85876,0.85877 0.68641,0.74316 -23.8932,1.78769 -8.184,0.34779 -15.384,0.69938 -16,0.78132 -1.83164,0.24364 -14.01801,0.83879 -29.76,1.45339 -4.488,0.17522 -9.672,0.40747 -11.52,0.51613 l -3.36,0.19754 0.0813,119.69862 c 0.0447,65.83424 0.13986,119.75722 0.21149,119.82885 0.11216,0.11216 9.90091,-8.51332 44.18724,-38.93614 3.872,-3.43568 10.2087,-9.05843 14.08155,-12.495 3.87285,-3.43656 11.28885,-10.01098 16.48,-14.60982 5.19115,-4.59884 12.53445,-11.11202 16.31845,-14.47374 3.784,-3.36172 7.132,-6.11503 7.44,-6.11847 0.48243,-0.005 0.55998,0.3151 0.55982,2.31374 l -1.8e-4,2.32 -1.99982,1.78593 c -1.0999,0.98226 -23.16782,20.52962 -49.03982,43.43857 -25.872,22.90895 -47.472,42.21253 -48,42.89685 -0.528,0.68431 -1.392,1.46852 -1.92,1.74268 -0.528,0.27416 -2.55364,1.91091 -4.50142,3.63722 -1.94778,1.72631 -6.70768,5.94675 -10.57756,9.37875 -18.703,16.58677 -105.922524,93.91914 -111.161148,98.56 -3.27805,2.904 -9.613993,8.52 -14.079872,12.48 -4.465879,3.96 -10.801879,9.576 -14.08,12.48 -8.659993,7.67166 -20.391244,18.07172 -32.795254,29.07385 L 20.969491,640 h -3.188745 c -1.75381,0 -3.051946,-0.1192 -2.884746,-0.26489 z m 197.33812,-174.89685 4.39412,-3.87826 0.006,-121.72135 0.006,-121.72134 -2.16,0.19266 c -1.188,0.10597 -5.184,0.27935 -8.88,0.3853 -3.696,0.10595 -6.90893,0.25277 -7.13985,0.32626 -0.33312,0.10602 -0.3166,0.28101 0.08,0.84724 0.45111,0.64405 0.49985,13.21991 0.49985,128.97939 v 128.26576 l 4.4,-3.8987 c 2.42,-2.14428 6.37735,-5.64392 8.79412,-7.77696 z M 61.12,269.92 v -6.56 l -1.68,-0.003 c -0.924,-0.002 -2.436,-0.0936 -3.36,-0.20457 l -1.68,-0.2018 v 6.76458 6.76457 h 3.36 3.36 z m 12.16,-10.0782 c 10.538062,-1.02387 18.938766,-2.16481 19.783497,-2.68688 0.135985,-0.084 1.608328,-0.38584 3.271874,-0.67066 4.375699,-0.74916 11.300269,-2.79596 13.975759,-4.13102 1.27112,-0.63428 2.38004,-1.15324 2.46428,-1.15324 0.0842,0 1.49223,-0.63175 3.12887,-1.40389 2.80726,-1.32442 7.60098,-3.52879 20.25572,-9.31446 2.992,-1.36793 5.584,-2.59687 5.76,-2.73099 0.176,-0.13411 1.21188,-0.61728 2.30195,-1.07371 1.09007,-0.45643 3.46607,-1.53165 5.28,-2.38938 1.81393,-0.85773 6.03405,-2.81563 9.37805,-4.3509 3.344,-1.53526 7.304,-3.38007 8.8,-4.09959 1.496,-0.71951 3.512,-1.63924 4.48,-2.04384 l 1.76,-0.73564 -0.0739,-1.65607 c -0.0407,-0.91084 -0.12529,-1.70743 -0.18805,-1.77019 -0.0628,-0.0628 -0.60549,0.12006 -1.20606,0.40628 -3.68932,1.75826 -6.23841,2.94363 -11.65118,5.41802 -3.34357,1.52848 -6.36361,2.97825 -6.7112,3.22171 -0.34758,0.24346 -0.81962,0.44265 -1.04897,0.44265 -0.22935,0 -1.78534,0.648 -3.45777,1.44 -1.67242,0.792 -3.10547,1.44 -3.18454,1.44 -0.0791,0 -2.09973,0.936 -4.49035,2.08 -2.39061,1.144 -4.40584,2.08 -4.47828,2.08 -0.0725,0 -1.53976,0.65972 -3.26069,1.46604 -1.72093,0.80632 -3.77697,1.76016 -4.56897,2.11964 -0.792,0.35948 -2.448,1.12735 -3.68,1.70638 -19.36483,9.10122 -23.28377,10.44111 -36.48,12.47253 -2.992,0.46059 -6.088,0.96814 -6.88,1.12789 -5.053209,1.01924 -21.887824,1.55088 -30.72,0.97012 -8.148913,-0.53582 -14.517808,-1.76452 -18.426994,-3.55496 -1.17216,-0.53686 -2.199309,-0.908 -2.282554,-0.82476 -0.08324,0.0833 -0.05502,0.58997 0.06273,1.12606 0.713739,3.24964 8.861511,5.85357 22.086821,7.0587 3.7857,0.34496 16.502624,0.35397 20,0.0142 z m -1.134743,-7.0664 c 9.732404,-0.94882 12.870321,-1.32886 17.134743,-2.07521 9.341713,-1.63498 14.98172,-2.98328 17.6,-4.20746 0.792,-0.37031 2.232,-0.99209 3.2,-1.38176 1.49751,-0.60281 5.98348,-2.64895 9.44,-4.30577 3.53433,-1.69412 8.17456,-3.80952 9.12,-4.15766 0.616,-0.22683 3.064,-1.34875 5.44,-2.49316 2.376,-1.14441 6.624,-3.12162 9.44,-4.3938 2.816,-1.27217 6.056,-2.74575 7.2,-3.27461 1.144,-0.52886 3.016,-1.38936 4.16,-1.91223 5.99901,-2.74183 10.63617,-5.01059 11.024,-5.39356 0.19001,-0.18762 -0.12203,-0.30018 -0.83222,-0.30018 -3.56253,0 -26.21626,-0.99253 -28.91178,-1.26672 -3.25361,-0.33095 -10.95498,-0.71535 -25.92,-1.29376 -4.576,-0.17686 -10.22688,-0.47448 -12.557518,-0.66138 l -4.237518,-0.33982 -6.322482,2.76254 c -3.477365,1.5194 -7.432895,3.25678 -8.790066,3.86084 -1.357172,0.60407 -2.558886,1.0983 -2.670476,1.0983 -0.11159,0 -1.233177,0.49412 -2.492415,1.09804 -1.259239,0.60392 -3.873525,1.77229 -5.809525,2.59636 -1.936,0.82408 -4.105464,1.76996 -4.821032,2.10196 -0.715567,0.332 -1.391043,0.60364 -1.501056,0.60364 -0.110014,0 -1.441074,0.576 -2.957912,1.28 -1.516838,0.704 -2.818204,1.28 -2.891925,1.28 -0.07372,0 -1.210538,0.504 -2.52626,1.12 -1.315722,0.616 -2.466613,1.12 -2.557535,1.12 -0.215521,0 -3.273492,1.3547 -6.10428,2.70423 -1.232,0.58734 -3.91795,1.86284 -5.968777,2.83445 -6.975481,3.30475 -8.667313,6.20923 -5.069236,8.7027 1.875116,1.29945 7.421573,2.95758 11.723001,3.50461 2.087257,0.26545 4.731012,0.60915 5.875012,0.76377 3.0329,0.40994 17.467476,0.42708 21.585257,0.0256 z M 173.91229,204.72 c 0.1247,-6.204 0.16202,-24.456 0.0829,-40.56 -0.12027,-24.49346 -0.22264,-29.64618 -0.62622,-31.52 -0.70627,-3.27926 -2.16094,-8.56198 -2.46365,-8.94691 -0.14407,-0.1832 -0.44468,-0.90909 -0.66801,-1.61309 -0.5742,-1.81004 -3.31096,-6.74104 -4.97927,-8.97149 -5.73833,-7.67189 -12.78143,-12.56442 -22.1835,-15.409887 -3.43873,-1.040707 -4.10668,-1.135401 -8.99458,-1.275118 -5.40968,-0.154633 -6.99664,0.02711 -11.68,1.337609 -5.98436,1.67455 -13.02651,6.195896 -17.52339,11.250736 -1.96311,2.20669 -4.71492,5.99766 -5.421019,7.46815 -0.380302,0.792 -0.777362,1.512 -0.882357,1.6 -0.104994,0.088 -0.452704,0.808 -0.772689,1.6 -0.319985,0.792 -0.848259,2.0399 -1.173942,2.77311 -0.637706,1.43566 -1.679651,6.59989 -2.215043,10.97849 -0.358146,2.92904 -0.485056,75.96092 -0.135041,77.711 0.14676,0.7338 0.41009,1.02469 1.04,1.14885 0.463915,0.0915 4.731481,0.32025 9.483481,0.50846 4.752,0.18821 10.224,0.47849 12.16,0.64506 1.936,0.16658 12.376,0.66591 23.2,1.10963 10.824,0.44372 21.12,0.92798 22.88,1.07612 1.76,0.14815 4.87526,0.29184 6.92279,0.31932 l 3.72279,0.05 z m -7.83229,8.38592 c -2.15178,-0.2232 -17.39623,-0.97265 -29.28,-1.43946 -2.464,-0.0968 -6.28,-0.30954 -8.48,-0.47277 -2.2,-0.16323 -9.976,-0.60075 -17.28,-0.97226 -11.427578,-0.58126 -13.346955,-0.74983 -13.76,-1.20846 -0.42323,-0.46993 -0.458947,-5.18814 -0.301992,-39.89297 0.174334,-38.54773 0.191827,-39.41613 0.847625,-42.08 0.923931,-3.75303 1.723517,-5.88621 3.311787,-8.83536 4.69281,-8.71374 12.13004,-15.05371 21.10258,-17.98916 3.80312,-1.244227 6.34083,-1.649984 10.3387,-1.653063 14.15941,-0.0109 27.16772,8.254363 33.65716,21.385233 1.82463,3.69199 2.74105,6.57341 3.62531,11.39878 l 0.82345,4.49357 0.10037,38.1363 0.10038,38.1363 -0.93208,0.6637 c -0.51265,0.36503 -1.05386,0.64455 -1.20269,0.62113 -0.14883,-0.0234 -1.3506,-0.15459 -2.6706,-0.29151 z m -26.24,-12.62416 c 1.89833,-0.63462 7.31304,-2.20655 11.59992,-3.36754 1.89196,-0.51239 3.69196,-1.06175 4,-1.2208 0.30805,-0.15905 1.13608,-0.3922 1.84008,-0.51812 0.704,-0.12592 2.792,-0.70879 4.64,-1.29527 1.848,-0.58648 3.828,-1.16186 4.4,-1.27861 0.572,-0.11675 1.05565,-0.38083 1.07478,-0.58685 0.11026,-1.18738 -0.10469,-44.86881 -0.22172,-45.05816 -0.0779,-0.12609 -0.60775,-0.082 -1.17738,0.0981 -0.56962,0.18005 -2.79968,0.81744 -4.95568,1.41643 -2.156,0.59898 -5.684,1.58372 -7.84,2.18831 -2.156,0.60458 -5,1.40128 -6.32,1.77045 -2.87612,0.80435 -6.64401,1.9383 -11.2,3.37061 -1.848,0.58098 -4.512,1.37255 -5.92,1.75906 -1.408,0.3865 -2.6968,0.83276 -2.864,0.99168 -0.1672,0.15892 -0.57999,0.28895 -0.91732,0.28895 -0.43636,0 -0.56366,0.16158 -0.44119,0.56 0.18657,0.60696 1.65568,5.69049 3.12114,10.8 0.50479,1.76 1.36439,4.712 1.91022,6.56 0.54584,1.848 1.34876,4.728 1.78427,6.4 0.43552,1.672 0.92758,3.328 1.09348,3.68 0.29426,0.62435 1.51721,4.84153 3.03881,10.4789 1.05525,3.90961 0.90901,3.78044 3.35459,2.96286 z M 122.4,156.48003 c 2.02729,-0.67586 5.42032,-1.65682 11.15561,-3.22519 1.91159,-0.52274 3.71159,-1.07413 4,-1.22531 0.28841,-0.15118 1.74839,-0.58301 3.24439,-0.95963 1.496,-0.37662 3.008,-0.81421 3.36,-0.97244 0.352,-0.15822 1.01072,-0.36727 1.46382,-0.46456 0.71594,-0.15373 0.89174,-0.4608 1.34248,-2.3449 1.56773,-6.55319 2.34015,-9.56289 2.52909,-9.85451 0.11635,-0.17959 0.51614,-1.61959 0.88842,-3.2 0.37227,-1.58042 0.81347,-3.16149 0.98044,-3.51349 0.30914,-0.65175 1.65573,-6.63021 1.51366,-6.7202 -0.71446,-0.45252 -2.80672,-0.87225 -6.3313,-1.27012 -4.24615,-0.47932 -8.96358,-1.1057 -13.10661,-1.74028 -5.75639,-0.8817 -13.88344,-1.62744 -14.09018,-1.29292 -0.11905,0.19261 -0.38995,1.8157 -0.602,3.60686 -0.21206,1.79116 -0.52781,3.80106 -0.70166,4.46644 -0.17385,0.66539 -0.66106,3.47339 -1.08269,6.24 -0.94264,6.18546 -2.57435,15.51416 -3.2027,18.31022 -0.75161,3.34453 -0.72171,3.45022 1.03923,3.67363 0.836,0.10607 2.024,0.32725 2.64,0.49152 1.17975,0.3146 2.18591,0.53573 2.72,0.5978 0.176,0.0204 1.184,-0.25086 2.24,-0.60292 z m 35.36,-10.31706 c 0.968,-0.33981 2.552,-0.82196 3.52,-1.07144 0.968,-0.24949 2.71891,-0.74524 3.89091,-1.10166 l 2.13091,-0.64804 0.10909,-1.69486 c 0.19675,-3.05677 -0.27451,-9.85455 -0.76861,-11.08697 -0.10584,-0.264 -0.28568,-1.056 -0.39964,-1.76 -0.21627,-1.33602 -0.90776,-3.58885 -1.3985,-4.55619 -0.15732,-0.3101 -0.51141,-1.0915 -0.78688,-1.73646 -0.27546,-0.64496 -0.76104,-1.25339 -1.07906,-1.35206 -1.28421,-0.39845 -5.05219,-1.0979 -5.25136,-0.97481 -0.11719,0.0724 -0.29048,0.52945 -0.38509,1.0156 -0.0946,0.48616 -0.7013,2.89992 -1.34819,5.36392 -0.6469,2.464 -1.53545,5.92 -1.97457,7.68 -0.43911,1.76 -0.83527,3.344 -0.88036,3.52 -0.0451,0.176 -0.17128,0.536 -0.28041,0.8 -0.10914,0.264 -0.54023,1.848 -0.95799,3.52 -0.41776,1.672 -0.81821,3.23761 -0.8899,3.47913 -0.17734,0.59744 2.77456,1.61828 4.02965,1.39355 0.528,-0.0945 1.752,-0.44991 2.72,-0.78971 z m 26.4,69.51698 c 2.288,-0.17654 11,-0.54574 19.36,-0.82046 8.36,-0.27471 18.872,-0.70661 23.36,-0.95979 9.51033,-0.53649 16.27871,-0.8786 34.72,-1.75492 7.392,-0.35126 15.24,-0.77309 17.44,-0.93739 2.2,-0.16431 8.32,-0.46484 13.6,-0.66786 5.28,-0.20301 9.63783,-0.40328 9.68406,-0.44505 0.23762,-0.21465 0.0222,-75.18552 -0.22088,-76.86156 -1.19413,-8.23432 -5.11978,-16.95389 -10.13971,-22.5221 -6.63589,-7.36067 -14.12137,-11.64227 -24.44347,-13.981369 -1.60252,-0.363148 -5.47835,-0.508717 -16.88385,-0.634125 -8.14212,-0.08953 -15.16212,-0.07286 -15.6,0.03705 -0.43788,0.109902 -0.79615,0.408011 -0.79615,0.662466 0,0.991874 -1.24846,1.125162 -10.53896,1.125162 l -9.30104,0 v 27.64118 27.64117 l 1.01466,0.42029 c 1.68839,0.69936 4.50621,3.76433 5.716,6.21736 1.05623,2.14167 1.10483,2.39452 1.10703,5.76 0.002,3.39204 -0.0384,3.60008 -1.11769,5.72291 -2.06311,4.0579 -5.81357,7.02631 -10.01618,7.92761 -0.90096,0.19322 -2.84846,0.2758 -4.32778,0.18351 -2.30782,-0.14398 -3.03056,-0.34286 -5.09084,-1.40092 -3.06455,-1.57378 -5.51724,-4.13361 -6.45987,-6.74204 -0.36792,-1.01809 -0.81213,-2.10112 -0.98714,-2.40673 -0.175,-0.30561 -0.31819,-1.63346 -0.31819,-2.95078 0,-1.85026 0.21314,-2.97915 0.9369,-4.9623 1.05753,-2.89771 2.46095,-4.77379 4.79599,-6.41126 l 1.59713,-1.12 0.015,-28.57004 c 0.0118,-22.5724 -0.069,-28.602089 -0.38501,-28.722684 -0.22,-0.08395 -11.92,-0.115431 -26,-0.06996 L 149.28,96.16 152,97.619297 c 7.82379,4.197513 12.43849,8.412003 17.32304,15.820703 2.1133,3.20538 3.6718,6.24248 4.43363,8.64 0.22371,0.704 0.52188,1.4266 0.66262,1.60578 0.14073,0.17918 0.62284,1.90718 1.07135,3.84 0.44852,1.93282 0.99467,4.01822 1.21369,4.63422 0.30773,0.86555 0.42094,10.51636 0.49831,42.48 l 0.10012,41.36 1.34862,4.6e-4 c 0.74174,2.5e-4 3.22062,-0.14398 5.50862,-0.32051 z m 26.89476,-39.79757 c 2.74795,-0.73181 5.24665,-2.45241 5.91912,-4.07589 0.21107,-0.50957 0.49466,-0.92649 0.6302,-0.92649 0.13553,0 0.49557,-0.612 0.80007,-1.36 0.63633,-1.56313 0.73519,-4.87734 0.20283,-6.8 -0.84932,-3.06742 -4.07784,-6.3859 -7.05536,-7.25196 -2.25006,-0.65446 -5.97743,-0.518 -7.76783,0.28439 -2.10927,0.94528 -4.31217,3.09486 -5.48872,5.35585 -0.89618,1.72218 -1.00533,2.22676 -1.0063,4.65172 -9e-4,2.2347 0.13198,2.97076 0.74476,4.12545 0.81125,1.52868 3.31352,4.35666 4.34185,4.907 2.75107,1.47233 5.80391,1.8557 8.67938,1.08993 z m -5.54336,-5.36033 c -2.75392,-1.36316 -3.90973,-5.49189 -2.2314,-7.97089 1.11153,-1.6418 3.23172,-2.63079 5.29327,-2.4691 1.86723,0.14644 2.84855,0.73076 4.35678,2.59423 0.80562,0.99537 0.96709,1.47956 0.96709,2.89993 0,4.25895 -4.45965,6.88921 -8.38574,4.94583 z m 3.57191,-2.88356 c 0.43639,-0.19883 0.96428,-0.77398 1.1731,-1.27811 0.74891,-1.80802 -1.22212,-3.36959 -3.11282,-2.46615 -1.86503,0.89117 -1.18754,3.89532 0.92135,4.08549 0.12372,0.0112 0.58199,-0.1424 1.01837,-0.34123 z M 210.99638,149.28 c 0.10988,-1.408 0.20065,-14.09837 0.2017,-28.20082 0.002,-21.73376 0.071,-25.698165 0.45542,-26.017184 0.32663,-0.271079 3.10294,-0.369461 9.92426,-0.351677 l 9.47077,0.02469 -0.0843,-10.807505 L 230.88,73.12 l -13.2,-0.08253 -13.2,-0.08253 V 111.9713 c 0,21.45899 0.0763,39.21523 0.16959,39.4583 0.12813,0.33391 0.90015,0.43808 3.15829,0.42617 l 2.98871,-0.0158 z m -58.28014,485.84777 c 2.86207,-2.69209 39.50325,-36.90212 81.42485,-76.02231 64.60112,-60.28414 83.36296,-77.60065 85.52609,-78.93754 0.22028,-0.13614 0.33282,0.69788 0.33282,2.46646 l 0,2.67215 -3.76,3.20972 c -2.068,1.76535 -39.46257,36.53538 -83.09904,77.26674 l -79.33904,74.05701 -3.14472,0.0912 -3.14472,0.0912 z"
         id="path4" />
      <path
         style="fill:#f2bf44;fill-opacity:1"
         d="M 0,320 V 0 h 160 160 v 185.12 c 0,176.08905 -0.0273,185.12031 -0.56,185.12626 -0.308,0.003 -3.656,2.75675 -7.44,6.11847 -3.784,3.36172 -11.1273,9.8749 -16.31845,14.47374 -5.19115,4.59884 -12.60715,11.17326 -16.48,14.60982 -3.87285,3.43657 -10.20955,9.05932 -14.08155,12.495 -34.28633,30.42282 -44.07508,39.0483 -44.18724,38.93614 -0.0716,-0.0716 -0.1668,-53.99461 -0.21149,-119.82885 L 220.64,217.35196 224,217.15442 c 1.848,-0.10866 7.032,-0.34091 11.52,-0.51613 15.74199,-0.6146 27.92836,-1.20975 29.76,-1.45339 0.616,-0.0819 7.816,-0.43353 16,-0.78132 24.57961,-1.04453 23.03444,-0.92892 23.8932,-1.78769 l 0.7468,-0.7468 -0.0164,-37.85454 c -0.009,-20.82 -0.13255,-38.79055 -0.27447,-39.93455 -0.37517,-3.02433 -1.82241,-9.28413 -2.40443,-10.4 -0.2754,-0.528 -0.50161,-1.18285 -0.5027,-1.45523 -0.004,-0.89419 -3.15796,-6.80618 -5.19942,-9.74477 -2.3227,-3.34343 -7.42015,-8.60352 -10.64255,-10.98211 -4.96515,-3.664995 -11.11785,-6.328693 -17.70691,-7.665879 -3.91854,-0.79523 -4.56299,-0.828668 -19.41309,-1.007273 L 234.4,92.64 234.31568,81.787583 c -0.0572,-7.358064 -0.19858,-10.990094 -0.43918,-11.28 -0.49224,-0.593106 -31.62086,-0.635223 -32.2125,-0.04358 -0.28374,0.28374 -0.384,3.249778 -0.384,11.36 l 0,10.976 -35.07545,0 -35.07546,0 -4.52454,0.832047 c -7.27061,1.337038 -12.63226,3.622847 -18.20536,7.761423 -5.20364,3.86421 -8.875181,8.1802 -12.017219,14.12653 -3.359621,6.35811 -4.440349,9.85201 -5.172554,16.72241 -0.211645,1.9859 -0.330603,17.18425 -0.32682,41.7554 l 0.0059,38.63299 -0.724272,0.55925 c -0.39835,0.30758 -1.372273,0.79628 -2.164273,1.086 -1.384542,0.50648 -3.28472,1.31232 -8.8,3.73199 -1.408,0.61772 -3.568,1.56191 -4.8,2.09819 -18.915566,8.23384 -22.061238,9.61556 -25.6,11.24469 -1.056,0.48615 -2.856,1.28452 -4,1.77415 -1.144,0.48963 -3.478468,1.5168 -5.187706,2.28259 -1.709239,0.76579 -3.228606,1.39234 -3.376373,1.39234 -0.496387,0 -4.383936,2.63018 -5.59678,3.78659 -0.660473,0.62973 -1.570589,1.85207 -2.022482,2.7163 -0.79158,1.51387 -0.817875,1.74452 -0.719141,6.30802 0.101392,4.68633 0.112823,4.75144 1.074943,6.12289 1.245277,1.77509 3.751157,3.27556 7.187539,4.30378 1.496,0.44762 3.368,1.01479 4.16,1.26038 0.792,0.24559 3.485066,0.70087 5.984592,1.01174 l 4.544592,0.56522 0.09541,7.7296 c 0.08733,7.07484 0.147046,7.7866 0.705004,8.40254 0.577241,0.63722 0.920573,0.67294 6.468741,0.67294 5.465259,0 5.881415,-0.0416 6.190404,-0.61896 0.201289,-0.37611 0.331259,-3.5586 0.331259,-8.11132 v -7.49236 l 4.4,-0.21497 c 4.926726,-0.24071 14.353517,-1.06454 17.04,-1.48917 4.752469,-0.75118 13.032651,-2.30349 13.6,-2.54962 0.352,-0.15272 1.432,-0.44396 2.4,-0.64722 2.20231,-0.46244 4.65362,-1.19538 5.96836,-1.78452 0.5546,-0.24852 1.12148,-0.45186 1.25973,-0.45186 0.23703,0 3.9046,-1.64125 8.93191,-3.99705 1.232,-0.57732 3.104,-1.44217 4.16,-1.9219 1.97602,-0.89768 4.26926,-1.97587 10.81848,-5.08645 2.07817,-0.98703 3.85624,-1.7946 3.95126,-1.7946 0.095,0 1.34671,-0.559 2.78152,-1.24222 1.4348,-0.68321 4.26474,-2.00098 6.28874,-2.92836 2.024,-0.92739 5.30839,-2.45639 7.29864,-3.39779 1.99025,-0.9414 3.67385,-1.71163 3.74132,-1.71163 0.0675,0 1.82309,-0.80903 3.90136,-1.79785 2.07827,-0.98882 5.65068,-2.63081 7.93868,-3.64888 6.42172,-2.8574 7.59401,-3.43611 7.88264,-3.89131 0.14716,-0.23208 0.26976,-1.59146 0.27246,-3.02084 l 0.005,-2.59889 3.76,-0.19538 c 2.068,-0.10746 6.1153,-0.28908 8.99399,-0.40359 5.22111,-0.20769 5.23312,-0.20658 4.88,0.45323 -0.25699,0.48019 -0.35399,36.37884 -0.35399,131.00958 v 130.34815 l -6.30907,5.59289 c -3.46999,3.07609 -10.20199,9.0439 -14.96,13.26181 -4.75801,4.21791 -11.74693,10.41385 -15.53093,13.76876 -3.784,3.35491 -10.084,8.9399 -14,12.41108 -13.48042,11.94918 -21.06586,18.67584 -30.96,27.45492 -5.456,4.8411 -23.312,20.66904 -39.68,35.17318 C 45.368889,612.7479 35.93103,621.11596 20.694317,634.64 L 14.655531,640 H 7.3277654 0 Z m 21.92,319.14465 c 0.528,-0.45932 6.576,-5.81572 13.44,-11.90311 12.977208,-11.50893 24.461275,-21.68999 36.48,-32.34088 3.872,-3.43133 9.488,-8.41116 12.48,-11.0663 12.074913,-10.7154 35.90558,-31.84546 73.26231,-64.95986 21.63826,-19.18098 42.50862,-37.6825 46.37858,-41.1145 3.86995,-3.432 8.62991,-7.65244 10.57769,-9.37875 1.94778,-1.72631 3.99591,-3.36654 4.55141,-3.64495 0.55549,-0.27842 1.18932,-0.84132 1.40852,-1.25089 0.31098,-0.58106 94.78079,-84.66761 98.58407,-87.7486 l 0.91742,-0.7432 -0.001,52.4232 -0.001,52.42319 -4.75475,4.01018 c -2.61511,2.2056 -41.43073,38.2416 -86.25693,80.08 L 147.48383,640 84.221914,639.98989 20.96,639.97978 Z m 133.7632,-1.02825 c 3.30963,-3.2523 156.33636,-145.94936 159.1968,-148.45063 1.496,-1.30816 3.26,-2.80621 3.92,-3.32901 l 1.2,-0.95054 V 562.69311 640 H 236.8832 153.7664 Z M 199.04,348.24816 c 0,-115.75948 -0.0487,-128.33534 -0.49985,-128.97939 -0.3966,-0.56623 -0.41312,-0.74122 -0.08,-0.84724 0.23092,-0.0735 3.44385,-0.22031 7.13985,-0.32626 3.696,-0.10595 7.692,-0.27933 8.88,-0.3853 l 2.16,-0.19266 -0.006,121.72134 -0.006,121.72135 -4.39412,3.87826 c -2.41677,2.13304 -6.37412,5.63268 -8.79412,7.77696 l -4.4,3.8987 z M 54.4,269.71543 v -6.76458 l 1.68,0.2018 c 0.924,0.11098 2.436,0.20304 3.36,0.20457 l 1.68,0.003 v 6.56 6.56 H 57.76 54.4 Z m -1.12,-9.88779 c -10.427601,-0.9502 -17.632834,-2.72592 -20.601655,-5.07727 -1.136864,-0.90041 -2.007372,-2.64801 -1.547893,-3.10749 0.08325,-0.0832 1.110394,0.2879 2.282554,0.82476 3.909186,1.79044 10.278081,3.01914 18.426994,3.55496 8.832176,0.58076 25.666791,0.0491 30.72,-0.97012 0.792,-0.15975 3.888,-0.6673 6.88,-1.12789 13.19623,-2.03142 17.11517,-3.37131 36.48,-12.47253 1.232,-0.57903 2.888,-1.3469 3.68,-1.70638 0.792,-0.35948 2.84804,-1.31332 4.56897,-2.11964 1.72093,-0.80632 3.18824,-1.46604 3.26069,-1.46604 0.0724,0 2.08767,-0.936 4.47828,-2.08 2.39062,-1.144 4.41127,-2.08 4.49035,-2.08 0.0791,0 1.51212,-0.648 3.18454,-1.44 1.67243,-0.792 3.22842,-1.44 3.45777,-1.44 0.22935,0 0.70139,-0.19919 1.04897,-0.44265 0.34759,-0.24346 3.36763,-1.69323 6.7112,-3.22171 5.41277,-2.47439 7.96186,-3.65976 11.65118,-5.41802 0.60057,-0.28622 1.14329,-0.46904 1.20606,-0.40628 0.0628,0.0628 0.14738,0.85935 0.18805,1.77019 l 0.0739,1.65607 -1.76,0.73564 c -0.968,0.4046 -2.984,1.32433 -4.48,2.04384 -1.496,0.71952 -5.456,2.56433 -8.8,4.09959 -3.344,1.53527 -7.56412,3.49317 -9.37805,4.3509 -1.81393,0.85773 -4.18993,1.93295 -5.28,2.38938 -1.09007,0.45643 -2.12595,0.9396 -2.30195,1.07371 -0.176,0.13412 -2.768,1.36306 -5.76,2.73099 -12.65474,5.78567 -17.44846,7.99004 -20.25572,9.31446 -1.63664,0.77214 -3.04463,1.40389 -3.12887,1.40389 -0.0842,0 -1.19316,0.51896 -2.46428,1.15324 -2.67549,1.33506 -9.60006,3.38186 -13.975759,4.13102 -1.663546,0.28482 -3.135889,0.58662 -3.271874,0.67066 -0.844731,0.52207 -9.245435,1.66301 -19.783497,2.68688 -3.497376,0.33981 -16.2143,0.3308 -20,-0.0142 z m -2.72,-7.07788 c -1.144,-0.15462 -3.787755,-0.49832 -5.875012,-0.76377 -4.301428,-0.54703 -9.847885,-2.20516 -11.723001,-3.50461 -3.598077,-2.49347 -1.906245,-5.39795 5.069236,-8.7027 C 40.08205,238.80707 42.768,237.53157 44,236.94423 46.830788,235.5947 49.888759,234.24 50.10428,234.24 c 0.09092,0 1.241813,-0.504 2.557535,-1.12 1.315722,-0.616 2.452539,-1.12 2.52626,-1.12 0.07372,0 1.375087,-0.576 2.891925,-1.28 1.516838,-0.704 2.847898,-1.28 2.957912,-1.28 0.110013,0 0.785489,-0.27164 1.501056,-0.60364 0.715568,-0.332 2.885032,-1.27788 4.821032,-2.10196 1.936,-0.82407 4.550286,-1.99244 5.809525,-2.59636 1.259238,-0.60392 2.380825,-1.09804 2.492415,-1.09804 0.11159,0 1.313304,-0.49423 2.670476,-1.0983 1.357171,-0.60406 5.312701,-2.34144 8.790066,-3.86084 l 6.322482,-2.76254 4.237518,0.33982 c 2.330638,0.1869 7.981518,0.48452 12.557518,0.66138 14.96502,0.57841 22.66639,0.96281 25.92,1.29376 2.69552,0.27419 25.34925,1.26672 28.91178,1.26672 0.71019,0 1.02223,0.11256 0.83222,0.30018 -0.38783,0.38297 -5.02499,2.65173 -11.024,5.39356 -1.144,0.52287 -3.016,1.38337 -4.16,1.91223 -1.144,0.52886 -4.384,2.00244 -7.2,3.27461 -2.816,1.27218 -7.064,3.24939 -9.44,4.3938 -2.376,1.14441 -4.824,2.26633 -5.44,2.49316 -0.94544,0.34814 -5.58567,2.46354 -9.12,4.15766 -3.45652,1.65682 -7.94249,3.70296 -9.44,4.30577 -0.968,0.38967 -2.408,1.01145 -3.2,1.38176 -2.61828,1.22418 -8.258287,2.57248 -17.6,4.20746 -4.264422,0.74635 -7.402339,1.12639 -17.134743,2.07521 -4.117781,0.40144 -18.552357,0.3843 -21.585257,-0.0256 z m 112.48,-37.11904 c -1.76,-0.14814 -12.056,-0.6324 -22.88,-1.07612 -10.824,-0.44372 -21.264,-0.94305 -23.2,-1.10963 -1.936,-0.16657 -7.408,-0.45685 -12.16,-0.64506 -4.752,-0.18821 -9.019566,-0.41701 -9.483481,-0.50846 -0.62991,-0.12416 -0.89324,-0.41505 -1.04,-1.14885 -0.350015,-1.75008 -0.223105,-74.78196 0.135041,-77.711 0.535392,-4.3786 1.577337,-9.54283 2.215043,-10.97849 0.325683,-0.73321 0.853957,-1.98111 1.173942,-2.77311 0.319985,-0.792 0.667695,-1.512 0.772689,-1.6 0.104995,-0.088 0.502055,-0.808 0.882357,-1.6 0.706099,-1.47049 3.457909,-5.26146 5.421019,-7.46815 4.49688,-5.05484 11.53903,-9.576186 17.52339,-11.250736 4.68336,-1.310502 6.27032,-1.492242 11.68,-1.337609 4.8879,0.139717 5.55585,0.234411 8.99458,1.275118 9.40207,2.845467 16.44517,7.737997 22.1835,15.409887 1.66831,2.23045 4.40507,7.16145 4.97927,8.97149 0.22333,0.704 0.52394,1.42989 0.66801,1.61309 0.30271,0.38493 1.75738,5.66765 2.46365,8.94691 0.40358,1.87382 0.50595,7.02654 0.62622,31.52 0.0791,16.104 0.0418,34.356 -0.0829,40.56 l -0.22671,11.28 -3.72279,-0.05 c -2.04753,-0.0275 -5.16279,-0.17117 -6.92279,-0.31932 z m 6.91329,-2.85442 0.93208,-0.6637 -0.10038,-38.1363 -0.10037,-38.1363 -0.82345,-4.49357 c -1.21405,-6.62501 -2.95564,-10.99164 -6.5212,-16.35034 -5.50796,-8.27796 -15.48844,-14.62059 -25.32127,-16.091771 -2.89934,-0.433798 -7.94633,-0.439216 -10.6587,-0.01144 -6.77824,1.069008 -14.34411,4.972105 -19.17214,9.890555 -5.48078,5.58344 -8.591582,11.06416 -10.362227,18.25657 -0.655798,2.66387 -0.673291,3.53227 -0.847625,42.08 -0.156955,34.70483 -0.121238,39.42304 0.301992,39.89297 0.413045,0.45863 2.332422,0.6272 13.76,1.20846 7.304,0.37151 15.08,0.80903 17.28,0.97226 2.2,0.16323 6.016,0.37598 8.48,0.47277 17.28222,0.67887 29.4543,1.33831 31.9506,1.73097 0.14883,0.0234 0.69004,-0.2561 1.20269,-0.62113 z m -32.51397,-12.1374 c -0.10915,-0.17661 -0.53841,-1.58061 -0.95391,-3.12 -1.5216,-5.63737 -2.74455,-9.85455 -3.03881,-10.4789 -0.1659,-0.352 -0.65796,-2.008 -1.09348,-3.68 -0.43551,-1.672 -1.23843,-4.552 -1.78427,-6.4 -0.54583,-1.848 -1.40543,-4.8 -1.91022,-6.56 -1.46546,-5.10951 -2.93457,-10.19304 -3.12114,-10.8 -0.12247,-0.39842 0.005,-0.56 0.44119,-0.56 0.33733,0 0.75012,-0.13003 0.91732,-0.28895 0.1672,-0.15892 1.456,-0.60518 2.864,-0.99168 1.408,-0.38651 4.072,-1.17808 5.92,-1.75906 4.55599,-1.43231 8.32388,-2.56626 11.2,-3.37061 1.32,-0.36917 4.164,-1.16587 6.32,-1.77045 2.156,-0.60459 5.684,-1.58933 7.84,-2.18831 2.156,-0.59899 4.38606,-1.23638 4.95568,-1.41643 0.56963,-0.18005 1.09945,-0.22419 1.17738,-0.0981 0.11703,0.18935 0.33198,43.87078 0.22172,45.05816 -0.0191,0.20602 -0.50278,0.4701 -1.07478,0.58685 -0.572,0.11675 -2.552,0.69213 -4.4,1.27861 -1.848,0.58648 -3.936,1.16935 -4.64,1.29527 -0.704,0.12592 -1.53203,0.35907 -1.84008,0.51812 -0.30804,0.15905 -2.10804,0.70841 -4,1.2208 -4.28688,1.16099 -9.70159,2.73292 -11.59992,3.36754 -1.6882,0.56438 -2.13108,0.59337 -2.40068,0.15714 z M 119.2,156.91479 c -0.352,-0.072 -1.144,-0.26538 -1.76,-0.42964 -0.616,-0.16427 -1.804,-0.38545 -2.64,-0.49152 -1.76094,-0.22341 -1.79084,-0.3291 -1.03923,-3.67363 0.62835,-2.79606 2.26006,-12.12476 3.2027,-18.31022 0.42163,-2.76661 0.90884,-5.57461 1.08269,-6.24 0.17385,-0.66538 0.4896,-2.67528 0.70166,-4.46644 0.21205,-1.79116 0.48295,-3.41425 0.602,-3.60686 0.20674,-0.33452 8.33379,0.41122 14.09018,1.29292 4.14303,0.63458 8.86046,1.26096 13.10661,1.74028 3.52458,0.39787 5.61684,0.8176 6.3313,1.27012 0.14207,0.09 -1.20452,6.06845 -1.51366,6.7202 -0.16697,0.352 -0.60817,1.93307 -0.98044,3.51349 -0.37228,1.58041 -0.77207,3.02041 -0.88842,3.2 -0.18894,0.29162 -0.96136,3.30132 -2.52909,9.85451 -0.45074,1.8841 -0.62654,2.19117 -1.34248,2.3449 -0.4531,0.0973 -1.11182,0.30634 -1.46382,0.46456 -0.352,0.15823 -1.864,0.59582 -3.36,0.97244 -1.496,0.37662 -2.95598,0.80845 -3.24439,0.95963 -0.28841,0.15118 -2.08841,0.70257 -4,1.22531 -5.73529,1.56837 -9.12832,2.54933 -11.15561,3.22519 -1.95,0.6501 -2.06882,0.66625 -3.2,0.43476 z m 33.28,-10.35337 c -1.04604,-0.36818 -1.55487,-0.71519 -1.46965,-1.00229 0.0717,-0.24152 0.47214,-1.80713 0.8899,-3.47913 0.41776,-1.672 0.84885,-3.256 0.95799,-3.52 0.10913,-0.264 0.23532,-0.624 0.28041,-0.8 0.0451,-0.176 0.44125,-1.76 0.88036,-3.52 0.43912,-1.76 1.32767,-5.216 1.97457,-7.68 0.64689,-2.464 1.25358,-4.87776 1.34819,-5.36392 0.0946,-0.48615 0.2679,-0.94317 0.38509,-1.0156 0.19917,-0.12309 3.96715,0.57636 5.25136,0.97481 0.31802,0.0987 0.8036,0.7071 1.07906,1.35206 0.27547,0.64496 0.62956,1.42636 0.78688,1.73646 0.49074,0.96734 1.18223,3.22017 1.3985,4.55619 0.11396,0.704 0.2938,1.496 0.39964,1.76 0.4941,1.23242 0.96536,8.0302 0.76861,11.08697 l -0.10909,1.69486 -2.13091,0.64804 c -1.172,0.35642 -2.92291,0.85217 -3.89091,1.10166 -0.968,0.24948 -2.552,0.73163 -3.52,1.07144 -2.70064,0.94803 -3.53885,1.01128 -5.28,0.39845 z M 177.20264,174.64 c -0.0774,-31.96364 -0.19058,-41.61445 -0.49831,-42.48 -0.21902,-0.616 -0.76517,-2.7014 -1.21369,-4.63422 -0.44851,-1.93282 -0.93062,-3.66082 -1.07135,-3.84 -0.14074,-0.17918 -0.43891,-0.90178 -0.66262,-1.60578 -0.76183,-2.39752 -2.32033,-5.43462 -4.43363,-8.64 C 164.43849,106.0313 159.82379,101.81681 152,97.619297 L 149.28,96.16 l 25.6,-0.08268 c 14.08,-0.04547 25.78,-0.01399 26,0.06996 0.31603,0.120595 0.39685,6.150284 0.38501,28.722684 l -0.015,28.57004 -1.59713,1.12 c -2.33504,1.63747 -3.73846,3.51355 -4.79599,6.41126 -0.72376,1.98315 -0.9369,3.11204 -0.9369,4.9623 0,1.31732 0.14319,2.64517 0.31819,2.95078 0.17501,0.30561 0.61922,1.38864 0.98714,2.40673 0.94263,2.60843 3.39532,5.16826 6.45987,6.74204 2.06028,1.05806 2.78302,1.25694 5.09084,1.40092 1.47932,0.0923 3.42682,0.01 4.32778,-0.18351 4.20261,-0.9013 7.95307,-3.86971 10.01618,-7.92761 1.07928,-2.12283 1.11992,-2.33087 1.11769,-5.72291 -0.002,-3.36548 -0.0508,-3.61833 -1.10703,-5.76 -1.20979,-2.45303 -4.02761,-5.518 -5.716,-6.21736 L 214.4,153.20235 V 125.56118 97.92 l 9.30104,0 c 9.2905,0 10.53896,-0.133288 10.53896,-1.125162 0,-0.254455 0.35827,-0.552564 0.79615,-0.662466 0.43788,-0.109901 7.45788,-0.126572 15.6,-0.03705 11.4055,0.125408 15.28133,0.270977 16.88385,0.634125 8.316,1.884496 15.54874,5.458119 20.8,10.277079 2.50852,2.30201 5.34499,5.51204 6.6383,7.51254 3.64325,5.63546 6.23129,12.41403 7.14488,18.71385 0.24306,1.67604 0.4585,76.64691 0.22088,76.86156 -0.0462,0.0418 -4.40406,0.24204 -9.68406,0.44505 -5.28,0.20302 -11.4,0.50355 -13.6,0.66786 -2.2,0.1643 -10.048,0.58613 -17.44,0.93739 -18.44129,0.87632 -25.20967,1.21843 -34.72,1.75492 -4.488,0.25318 -15,0.68508 -23.36,0.95979 -8.36,0.27472 -17.072,0.64392 -19.36,0.82046 -2.288,0.17653 -4.76688,0.32076 -5.50862,0.32051 L 177.30276,216 Z m 27.42614,1.07652 c -2.34584,-0.845 -2.74048,-1.10193 -4.37249,-2.84669 -2.40035,-2.56616 -2.9688,-3.9281 -2.96752,-7.10983 9.7e-4,-2.42496 0.11012,-2.92954 1.0063,-4.65172 1.17655,-2.26099 3.37945,-4.41057 5.48872,-5.35585 1.7904,-0.80239 5.51777,-0.93885 7.76783,-0.28439 2.97752,0.86606 6.20604,4.18454 7.05536,7.25196 0.53236,1.92266 0.4335,5.23687 -0.20283,6.8 -0.3045,0.748 -0.66454,1.36 -0.80007,1.36 -0.13554,0 -0.41913,0.41692 -0.6302,0.92649 -0.38271,0.92394 -2.03,2.43484 -3.51912,3.22774 -2.46998,1.31519 -6.2564,1.6079 -8.82598,0.68229 z m 6.15006,-5.13843 c 3.03882,-1.37967 4.14409,-5.43953 2.15121,-7.9018 -1.50823,-1.86347 -2.48955,-2.44779 -4.35678,-2.59423 -1.34605,-0.10557 -1.98855,0.0249 -3.13327,0.6364 -2.02875,1.0837 -2.88,2.46129 -2.88,4.66075 0,4.42492 4.14646,7.0478 8.21884,5.19888 z m -3.64927,-2.90452 c -1.4135,-0.56877 -1.40411,-3.10171 0.014,-3.77934 1.15544,-0.55211 2.30657,-0.26039 2.9704,0.75274 0.43148,0.65852 0.4562,0.95588 0.14242,1.71341 -0.20882,0.50413 -0.73671,1.07928 -1.1731,1.27811 -0.91553,0.41715 -1.00044,0.41867 -1.95374,0.0351 z"
         id="path3" />
      <path
         style="fill:#2dd9cb;fill-opacity:1"
         d="m 204.66485,151.2156 c -0.0969,-0.36058 -0.17808,-18.11674 -0.18048,-39.45813 l -0.004,-38.802531 13.2,0.08253 13.2,0.08253 0.0843,10.807505 0.0843,10.807505 -9.47077,-0.02469 c -6.82132,-0.01778 -9.59763,0.0806 -9.92426,0.351677 -0.3844,0.319019 -0.45379,4.283424 -0.45542,26.017184 -0.001,14.10245 -0.0918,26.79282 -0.2017,28.20082 l -0.19979,2.56 -2.97782,0.0156 c -2.7376,0.0143 -2.99201,-0.0373 -3.15392,-0.64 z"
         id="path2" />
    </g>
  </g>
</svg>
